<?xml version="1.0" encoding="utf-8"?>
<!-- Generator: Adobe Illustrator 16.0.0, SVG Export Plug-In . SVG Version: 6.00 Build 0)  -->
<!DOCTYPE svg PUBLIC "-//W3C//DTD SVG 1.1//EN" "http://www.w3.org/Graphics/SVG/1.1/DTD/svg11.dtd">
<svg version="1.1" id="Layer_1" xmlns="http://www.w3.org/2000/svg" xmlns:xlink="http://www.w3.org/1999/xlink" x="0px" y="0px"
	 width="391.156px" height="480px" viewBox="0 0 391.156 480" enable-background="new 0 0 391.156 480" xml:space="preserve">
<g>
	<path fill="#FFFFFF" d="M142.236,288.928c0.859-3.258,1.964-6.434,3.469-9.45c1.385-2.771,3.656-5.208,4.282-8.244
		c0.293-1.411-1.538-2.603-2.736-1.924c-2.75,1.565-4.121,4.688-5.52,7.438c-1.711,3.37-2.977,6.886-3.902,10.548
		C137.089,290.191,141.463,291.863,142.236,288.928z"/>
	<path fill="#FFFFFF" d="M155.28,295.731c-0.113,0.327-0.226,0.646-0.339,0.973c-0.673,1.897,2.111,3.516,3.215,1.686
		c2.924-4.849,5.354-9.989,8.257-14.87c1.551-2.604-2.283-5.34-3.882-2.718c-3.05,4.982-6.007,10.275-7.591,15.902
		c1.179,0.267,2.356,0.54,3.536,0.808c0.04-0.342,0.073-0.682,0.106-1.021C158.783,294.566,155.933,293.894,155.28,295.731z"/>
	<path fill="#FFFFFF" d="M135.138,261.806c33.107,19.377,62.553,44.028,95.021,64.151c2.817,1.744,5.294-2.012,2.897-4.129
		c-27.881-24.592-63.552-45.767-96.467-62.8C135.004,258.21,133.586,260.9,135.138,261.806z"/>
	<path fill="#FFFFFF" d="M76.047,223.909c-15.808-23.272,21.314-78.714,47.669-79.993c2.365-0.113,2.625-3.995,0.414-4.602
		c-18.085-4.946-35.525,21.229-43.516,33.941c-6.584,10.467-14.735,22.759-14.37,35.625c0.207,7.164,0.866,14.968,7.431,18.411
		C75.801,228.411,77.079,225.428,76.047,223.909z"/>
	<path fill="#FFFFFF" d="M72.372,224.283c18.338-3.616,31.996-20.756,41.564-35.638c7.571-11.767,19.444-30.805,15.102-45.568
		c-0.899-3.049-5.84-2.21-4.927,0.873c3.922,13.211-7.551,31.503-14.177,41.891c-8.822,13.811-21.334,30.498-38.355,33.979
		C68.729,220.406,69.501,224.849,72.372,224.283z"/>
	<path fill="#FFFFFF" d="M234.075,324.984c29.938-17.626,49.854-46.186,56.121-80.346c0.579-3.17-4.415-3.615-4.981-0.473
		c-5.846,32.302-24.938,59.863-53.084,76.729C229.659,322.374,231.552,326.476,234.075,324.984z"/>
	<path fill="#FFFFFF" d="M118.996,251.204c30.95-13.844,50.121-48.204,56.114-80.346c0.593-3.164-4.402-3.616-4.974-0.473
		c-5.606,30.444-23.932,63.425-53.084,76.729C114.395,248.321,116.327,252.396,118.996,251.204z"/>
	<path fill="#FFFFFF" d="M134.278,260.731c29.938-17.631,49.854-46.184,56.121-80.345c0.58-3.169-4.414-3.615-4.98-0.473
		c-5.847,32.296-24.938,59.863-53.085,76.73C129.864,258.122,131.754,262.225,134.278,260.731z"/>
	<path fill="#FFFFFF" d="M126.481,143.697c14.404,9.868,28.799,20.335,44.149,28.719c2.196,1.199,4.38-1.691,2.277-3.256
		c-14.037-10.442-29.585-19.131-44.587-28.094C126.568,140.021,124.756,142.511,126.481,143.697z"/>
	<path fill="#FFFFFF" d="M130.077,241.908c4.048,2.736,8.05,5.56,12.206,8.138c2.118,1.305,4.295-1.739,2.23-3.19
		c-4.001-2.81-8.178-5.38-12.279-8.03C130.203,237.521,128.059,240.55,130.077,241.908z"/>
	<path fill="#FFFFFF" d="M73.07,227.372c7.484,4.728,14.949,9.496,22.415,14.257c5.859,3.736,12.219,9.449,19.169,10.614
		c1.918,0.325,2.704-2.039,1.758-3.371c-4.102-5.731-12.711-9.295-18.652-13.003c-7.104-4.442-14.209-8.882-21.334-13.292
		C73.237,220.607,69.868,225.354,73.07,227.372z"/>
	<path fill="#FFFFFF" d="M168.558,185.202c2.971,4.494,7.798,10.487,13.651,11.013c1.745,0.153,2.576-1.818,1.631-3.129
		c-1.604-2.197-4.148-3.377-6.259-5.035c-2.23-1.745-4.602-3.529-6.712-5.393C169.271,181.246,167.58,183.709,168.558,185.202z"/>
	<path fill="#FFFFFF" d="M188.747,183.669c31.671,22.328,63.894,44.636,96.774,65.13c3.023,1.885,6.12-2.449,3.189-4.548
		c-31.51-22.566-64.438-43.822-97.172-64.571C188.901,178.01,186.165,181.852,188.747,183.669z"/>
	<path fill="#FFFFFF" d="M243.584,316.095c0.579,6.512,4.601,12.964,8.431,18.104c3.628,4.875,9.075,11.207,15.055,13.053
		c1.844,0.571,3.623-1.604,2.23-3.184c-3.948-4.488-9.215-7.512-13.024-12.305c-4.148-5.215-6.059-11.076-9.223-16.774
		C246.021,313.139,243.392,314.024,243.584,316.095z"/>
	<path fill="#FFFFFF" d="M266.823,345.985c7.697-1.631,14.41-6.338,19.464-12.298c4.454-5.261,9.976-14.143,8.549-21.288
		c-0.405-2.005-2.876-1.965-3.701-0.334c-1.372,2.697-1.592,5.728-2.664,8.563c-1.312,3.477-3.195,6.719-5.514,9.623
		c-4.601,5.773-10.606,9.274-17.279,12.146C263.72,343.235,264.719,346.433,266.823,345.985z"/>
	<path fill="#FFFFFF" d="M263.973,300.932c9.809,4.502,18.672,8.997,27.607,15.116c2.479,1.698,4.809-1.857,2.624-3.748
		c-7.824-6.773-18.677-12.864-28.792-15.257C262.849,296.437,261.502,299.794,263.973,300.932z"/>
	<path fill="#FFFFFF" d="M276.539,281.176c4.034,8.583,12.99,16.061,21.96,18.991c2.931,0.959,4.535-3.351,1.665-4.487
		c-9.05-3.584-14.855-8.671-20.389-16.595C278.489,277.247,275.619,279.231,276.539,281.176z"/>
	<path fill="#FFFFFF" d="M286.68,257.836c6.192,0.253,11.866,0.779,17.5,3.596c4.808,2.398,7.823,7.379,12.545,9.39
		c1.585,0.679,3.057-0.858,2.87-2.396c-0.692-5.734-8.197-10.17-12.999-12.421c-6.099-2.85-13.57-4.094-20.076-2.149
		C284.529,254.454,284.216,257.73,286.68,257.836z"/>
	<path fill="#FFFFFF" d="M303.312,300.84c10.422-6.74,16.962-20.59,19.178-32.423c0.613-3.27-4.36-3.596-5.061-0.485
		c-1.385,6.126-3.409,11.926-6.665,17.326c-2.823,4.682-6.666,8.316-9.988,12.577C299.598,299.354,301.581,301.957,303.312,300.84z"
		/>
	<path fill="#FFFFFF" d="M285.808,349.581c1.912,1.6,3.756,2.805,6.06,3.763c1.631,0.681,3.216-1.539,1.991-2.843
		c-1.705-1.817-3.47-3.116-5.647-4.348C285.861,344.827,283.723,347.837,285.808,349.581z"/>
	<path fill="#FFFFFF" d="M302.195,361.034c9.855,7.612,19.729,16.056,30.796,21.849c1.412,0.734,2.891-1.458,1.778-2.543
		c-8.943-8.71-20.069-15.463-30.37-22.453C302.342,356.487,300.237,359.531,302.195,361.034z"/>
	<path fill="#FFFFFF" d="M293.159,339.928c5.054,4.181,10.34,8.097,15.528,12.112c5.141,3.975,10.193,8.469,15.941,11.532
		c1.511,0.805,3.589-0.919,2.197-2.41c-4.281-4.588-9.655-8.184-14.644-11.974c-5.547-4.215-11.014-8.556-16.693-12.592
		C293.325,335.065,291.168,338.282,293.159,339.928z"/>
	<path fill="#FFFFFF" d="M334.23,370.817c2.457,1.364,4.888,2.783,7.405,4.028c1.571,0.779,2.884-1.778,1.419-2.703
		c-2.259-1.432-4.615-2.697-6.938-4.022C334.284,367.082,332.386,369.792,334.23,370.817z"/>
	<path fill="#FFFFFF" d="M305.458,335.945c2.97,2.363,5.934,4.721,8.902,7.084c2.917,2.324,5.78,5.082,9.063,6.852
		c1.592,0.86,3.682-0.932,2.284-2.503c-2.438-2.75-5.661-4.855-8.544-7.118c-3.163-2.491-6.333-4.975-9.496-7.465
		C305.711,331.257,303.534,334.406,305.458,335.945z"/>
	<path fill="#FFFFFF" d="M311.75,301.711c4.123,2.512,7.226,5.933,11.007,8.804c1.325,1.005,3.449-0.652,2.558-2.165
		c-2.583-4.368-7.563-7.41-12.045-9.528C311.584,298.029,310.159,300.745,311.75,301.711z"/>
	<path fill="#FFFFFF" d="M333.797,316.728c7.4,4.681,14.677,9.875,22.448,13.917c1.545,0.806,2.697-1.666,1.378-2.631
		c-6.959-5.081-14.775-9.223-22.134-13.704C333.878,313.332,332.187,315.708,333.797,316.728z"/>
	<path fill="#FFFFFF" d="M319.454,292.629c15.648,10.833,31.49,21.9,47.705,31.843c1.971,1.205,3.901-1.524,2.063-2.943
		c-15.023-11.546-31.629-21.907-48.022-31.383C319.528,289.186,317.823,291.503,319.454,292.629z"/>
	<path fill="#FFFFFF" d="M324.515,285.177c6.04,5.448,14.011,9.716,21.256,13.339c1.69,0.845,2.758-1.718,1.451-2.776
		c-6.298-5.122-13.517-10.562-20.995-13.824C324.129,280.995,323.077,283.879,324.515,285.177z"/>
	<path fill="#FFFFFF" d="M357.956,305.975c2.562,2.069,5.288,4.146,8.171,5.751c1.804,1.013,3.416-1.271,1.837-2.622
		c-2.51-2.145-5.406-3.976-8.244-5.654C358.01,302.437,356.406,304.715,357.956,305.975z"/>
	<g>
		<path fill="#FFFFFF" d="M7.939,426.604c33.835-48.956,65.524-99.523,98.025-149.365c1.652-2.537-2.189-5.239-3.848-2.695
			c-32.501,49.854-65.996,99.263-97.152,149.978C3.746,426.499,6.595,428.542,7.939,426.604z"/>
		<path fill="#FFFFFF" d="M94.897,474.128c33.841-48.948,65.53-99.516,98.033-149.363c1.651-2.531-2.191-5.234-3.849-2.697
			c-32.51,49.861-66.002,99.265-97.159,149.978C90.709,474.022,93.56,476.073,94.897,474.128z"/>
		<path fill="#FFFFFF" d="M6.095,427.645c26.043,19.936,54.957,35.705,84.488,49.794c2.963,1.412,4.681-3.355,1.764-4.774
			c-29.213-14.177-56.295-31.336-83.461-49.01C6.256,421.938,3.605,425.738,6.095,427.645z"/>
		<path fill="#FFFFFF" d="M104.873,275.315c28.653,15.39,56.287,31.496,83.022,50.055c2.717,1.886,5.621-2.271,2.944-4.201
			c-26.291-18.998-54.424-36.197-83.921-49.756C104.654,270.368,102.642,274.117,104.873,275.315z"/>
		<path fill="#FFFFFF" d="M26.998,436.274c34.073-49.376,68.04-98.824,101.887-148.366c1.771-2.59-2.224-5.387-3.995-2.797
			c-33.82,49.555-67.521,99.197-101.114,148.912C22.356,436.119,25.553,438.365,26.998,436.274z"/>
		<path fill="#FFFFFF" d="M50.583,448.951c31.091-50.939,64.305-100.176,100.31-147.784c2.011-2.658-2.23-5.622-4.234-2.964
			c-35.945,47.523-69.247,97.025-99.298,148.492C46.102,448.859,49.258,451.131,50.583,448.951z"/>
		<path fill="#FFFFFF" d="M70.133,463.834c35.046-49.089,69.139-99.337,101.987-149.923c1.438-2.211-1.824-4.516-3.355-2.352
			c-34.932,49.177-69.093,99.377-101.821,150.044C65.592,463.708,68.668,465.886,70.133,463.834z"/>
		<path fill="#FFFFFF" d="M59.174,347.963c25.976,18.413,54.569,32.515,79.979,51.893c2.431,1.858,5.161-2.045,2.717-3.882
			c-25.237-19.017-53.23-35.317-80.832-50.667C59.246,344.308,57.429,346.731,59.174,347.963z"/>
		<path fill="#FFFFFF" d="M84.151,308.663c23.672,20.53,54.117,34.134,79.833,52.099c2.191,1.532,4.595-1.91,2.377-3.395
			c-26.049-17.413-52.844-36.498-80.538-51.088C84.171,305.413,82.719,307.417,84.151,308.663z"/>
		<path fill="#FFFFFF" d="M31.021,391.812c5.014,2.443,9.96,5.007,14.702,7.95c3.935,2.437,7.537,5.52,11.686,7.559
			c1.718,0.845,3.296-1.651,2.084-2.983c-6.711-7.392-17.965-12.499-27.035-16.415C29.974,386.851,28.663,390.666,31.021,391.812z"
			/>
		<path fill="#FFFFFF" d="M65.686,412.129c14.849,11.619,30.324,24.825,47.271,33.227c1.892,0.939,3.044-1.897,1.618-3.082
			c-14.583-12.053-31.702-21.627-46.998-32.843C65.859,408.174,64.028,410.83,65.686,412.129z"/>
	</g>
	<g>
		<path fill="#FFFFFF" d="M384.025,56.658c-35.212,47.978-68.181,97.732-102.014,146.696c-1.724,2.49,2.124,5.187,3.85,2.69
			c33.834-48.963,68.712-97.399,101.134-147.301C388.274,56.779,385.41,54.768,384.025,56.658z"/>
		<path fill="#FFFFFF" d="M298.365,6.817c-35.203,47.977-68.18,97.732-102.006,146.688c-1.725,2.49,2.124,5.193,3.849,2.697
			c33.826-48.962,68.705-97.399,101.135-147.308C302.614,6.937,299.758,4.919,298.365,6.817z"/>
		<path fill="#FFFFFF" d="M385.87,55.586c-25.503-20.629-53.99-37.149-83.136-52.025c-2.924-1.492-4.628,3.283-1.765,4.768
			c28.807,14.949,55.437,32.861,82.104,51.247C385.684,61.38,388.286,57.545,385.87,55.586z"/>
		<path fill="#FFFFFF" d="M283.045,205.212c-28.228-16.142-55.43-33.002-81.659-52.266c-2.669-1.958-5.56,2.205-2.942,4.202
			c25.777,19.697,53.431,37.623,82.557,51.973C283.244,210.226,285.234,206.47,283.045,205.212z"/>
		<path fill="#FFFFFF" d="M365.227,46.478c-35.392,48.457-70.669,96.979-105.835,145.596c-1.844,2.543,2.151,5.334,3.989,2.79
			c35.139-48.623,70.15-97.339,105.07-146.128C369.929,46.67,366.719,44.433,365.227,46.478z"/>
		<path fill="#FFFFFF" d="M341.988,33.173c-32.435,50.088-66.975,98.445-104.244,145.057c-2.085,2.603,2.164,5.56,4.233,2.97
			c37.211-46.532,71.831-95.129,103.232-145.769C346.535,33.292,343.372,31.036,341.988,33.173z"/>
		<path fill="#FFFFFF" d="M322.852,17.771c-36.364,48.13-71.784,97.445-105.982,147.14c-1.499,2.177,1.777,4.462,3.363,2.352
			c36.235-48.224,71.728-97.487,105.801-147.261C327.452,17.931,324.356,15.774,322.852,17.771z"/>
		<path fill="#FFFFFF" d="M330.688,133.829c-25.403-19.191-53.697-33.974-78.575-54.037c-2.377-1.918-5.101,1.991-2.716,3.889
			c24.677,19.69,52.225,36.816,79.426,52.805C330.608,137.538,332.373,135.099,330.688,133.829z"/>
		<path fill="#FFFFFF" d="M304.944,172.696c-23.019-21.382-53.41-35.777-78.693-54.483c-2.145-1.585-4.562,1.851-2.378,3.396
			c25.517,18.085,51.779,38.109,79.127,53.218C304.306,175.553,306.257,173.921,304.944,172.696z"/>
		<path fill="#FFFFFF" d="M359.994,90.752c-4.921-2.558-9.756-5.247-14.391-8.291c-3.888-2.55-7.438-5.806-11.565-7.917
			c-1.759-0.892-3.211,1.646-2.091,2.983c3.31,3.949,8.323,6.792,12.652,9.515c4.493,2.824,9.134,5.374,13.957,7.598
			C361.02,95.787,362.297,91.958,359.994,90.752z"/>
		<path fill="#FFFFFF" d="M325.901,69.51c-14.464-11.959-29.666-25.77-46.374-34.473c-1.91-0.992-2.963,1.884-1.61,3.084
			c14.144,12.511,31.116,22.479,46.092,34.086C325.701,73.52,327.513,70.849,325.901,69.51z"/>
	</g>
	<path fill="#FFFFFF" d="M211.169,194.118c2.556-7.792,6.599-14.517,13.357-19.365c2.862-2.057-0.733-6.365-3.569-4.208
		c-7.245,5.52-12.52,13.558-13.259,22.78C207.539,195.31,210.522,196.095,211.169,194.118z"/>
	<path fill="#FFFFFF" d="M230.165,208.641c1.393-4.601,3.084-8.876,5.722-12.926c2.264-3.462,5.692-6.152,7.591-9.774
		c0.845-1.612-1.253-2.97-2.632-2.404c-4.187,1.718-7.391,6.912-9.495,10.72c-2.329,4.215-3.974,8.823-4.7,13.577
		C226.345,209.859,229.566,210.611,230.165,208.641z"/>
	<path fill="#FFFFFF" d="M89.864,211.377c-5.213-11.2-8.449-23.226,0.772-33.681c8.184-9.275,17.973-8.536,29.026-7.983
		c2.104,0.1,3.569-2.884,1.512-4.116c-10.987-6.592-27.109-0.493-34.68,8.776c-8.49,10.396-10.034,29.213,0.446,38.888
		C88.318,214.534,90.77,213.315,89.864,211.377z"/>
	<path fill="#FFFFFF" d="M193.136,294.334c31.124-12.413,52.552-40.034,57.919-72.921c0.6-3.695-5.207-4.229-5.794-0.547
		c-4.979,31.264-25.149,56.88-53.829,69.879C189.087,291.804,190.779,295.278,193.136,294.334z"/>
	<path fill="#FFFFFF" d="M202.931,290.598c4.669,4.947,11.041,8.496,16.661,12.272c6.371,4.288,12.852,8.396,19.277,12.605
		c2.511,1.645,5.193-2.312,2.65-3.781c-6.652-3.843-13.151-7.972-19.576-12.181c-5.701-3.736-11.214-8.39-17.447-11.154
		C203.217,287.795,201.979,289.585,202.931,290.598z"/>
	<path fill="#FFFFFF" d="M222.755,276.601c4.987,4.608,10.86,8.324,16.366,12.287c6.073,4.374,12.04,9.407,18.605,12.977
		c1.498,0.819,3.735-1.024,2.23-2.443c-4.94-4.642-10.832-8.351-16.313-12.339c-6.053-4.401-12.006-9.422-18.551-13.051
		C223.52,273.151,221.163,275.13,222.755,276.601z"/>
	<path fill="#FFFFFF" d="M236.56,253.888c4.574,4.914,10.639,8.457,16.106,12.292c6.046,4.248,12.106,8.477,18.125,12.759
		c2.565,1.818,5.349-2.165,2.798-3.995c-6.007-4.31-12.1-8.483-18.192-12.666c-5.514-3.775-10.927-8.209-17.054-10.934
		C236.878,250.698,235.493,252.736,236.56,253.888z"/>
	<path fill="#FFFFFF" d="M246.4,234.491c10.767,10.001,23.779,19.145,35.971,27.367c2.444,1.646,4.841-1.89,2.598-3.715
		c-11.268-9.136-23.719-18.904-36.258-26.189C247.153,231.047,244.855,233.059,246.4,234.491z"/>
	<path fill="#FFFFFF" d="M136.602,255.692c-0.252-2.324,1.166-5.061,2.963-6.387c2.776-2.044-0.726-6.212-3.489-4.107
		c-1.831,1.399-3.176,3.229-3.862,5.446c-0.806,2.584-0.167,3.902,0.752,6.205C133.812,258.962,136.822,257.743,136.602,255.692z"/>
	<path fill="#FFFFFF" d="M138.586,246.223c-0.512,0.78-0.819,1.386-1.145,2.271c-0.373,1.006-0.18,2.186,0.526,3.004
		c0.146,0.173,0.293,0.339,0.439,0.514c0.858,0.985,2.211,0.991,3.222,0.259c0.201-0.14,0.399-0.279,0.6-0.426
		c0.879-0.633,1.132-1.818,1.019-2.823c-0.107-0.933-0.307-1.585-0.613-2.458C142.043,244.878,139.485,244.846,138.586,246.223z"/>
	<path fill="#FFFFFF" d="M180.977,190.302c0.752-2.17,1.619-4.249,3.356-5.82c1.479-1.338,3.216-1.944,4.541-3.482
		c1.152-1.338-0.166-2.976-1.518-3.283c-5.747-1.312-10.921,6.593-11.167,11.494C176.05,191.934,180.032,193.051,180.977,190.302z"
		/>
	<path fill="#FFFFFF" d="M185.219,190.016c1.612-2.257,2.97-4.228,3.362-6.998c0.28-1.958-1.977-2.617-3.329-1.744
		c-2.131,1.377-3.296,3.409-4.548,5.58C178.959,189.883,183.128,192.953,185.219,190.016z"/>
	<path fill="#FFFFFF" d="M136.076,256.705c-0.207-2.757,1.505-4.948,3.036-7.038c0.966-1.312-0.279-3.424-1.931-3.032
		c-4.887,1.16-6.917,6.24-5.946,10.922C131.888,260.705,136.303,259.808,136.076,256.705z"/>
	<path fill="#FFFFFF" d="M139.073,254.027c1.637-0.22,2.815-0.673,4.095-1.711c1.298-1.066,0.653-3.576-1.139-3.609
		c-1.671-0.033-2.836,0.259-4.294,1.125C135.617,251.078,136.489,254.373,139.073,254.027z"/>
</g>
</svg>
